<svg width="113" height="17" fill="none" xmlns="http://www.w3.org/2000/svg"><mask id="a" fill="#fff"><path d="M112.956 6.156a.903.903 0 00-.778-.62l-4.907-.446-1.94-4.542a.904.904 0 00-1.662.001l-1.94 4.54-4.907.446a.903.903 0 00-.513 1.581l3.709 3.253-1.094 4.817a.903.903 0 001.344.977l4.232-2.53 4.231 2.53a.904.904 0 001.345-.976l-1.094-4.818 3.709-3.252a.905.905 0 00.265-.96z"/></mask><path d="M112.956 6.156a.903.903 0 00-.778-.62l-4.907-.446-1.94-4.542a.904.904 0 00-1.662.001l-1.94 4.54-4.907.446a.903.903 0 00-.513 1.581l3.709 3.253-1.094 4.817a.903.903 0 001.344.977l4.232-2.53 4.231 2.53a.904.904 0 001.345-.976l-1.094-4.818 3.709-3.252a.905.905 0 00.265-.96v0z" fill="#FFC107" stroke="#FFC107" stroke-width="2" mask="url(#a)"/><mask id="b" fill="#fff"><path d="M88.956 6.156a.902.902 0 00-.778-.62L83.27 5.09 81.331.548a.904.904 0 00-1.662.001l-1.94 4.54-4.907.446a.903.903 0 00-.513 1.581l3.709 3.253-1.094 4.817a.903.903 0 001.344.977l4.232-2.53 4.231 2.53a.904.904 0 001.345-.976l-1.094-4.818 3.709-3.252a.904.904 0 00.265-.96z"/></mask><path d="M88.956 6.156a.902.902 0 00-.778-.62L83.27 5.09 81.331.548a.904.904 0 00-1.662.001l-1.94 4.54-4.907.446a.903.903 0 00-.513 1.581l3.709 3.253-1.094 4.817a.903.903 0 001.344.977l4.232-2.53 4.231 2.53a.904.904 0 001.345-.976l-1.094-4.818 3.709-3.252a.904.904 0 00.265-.96v0z" fill="#FFC107" stroke="#FFC107" stroke-width="2" mask="url(#b)"/><mask id="c" fill="#fff"><path d="M64.956 6.156a.902.902 0 00-.778-.62L59.27 5.09 57.331.548a.904.904 0 00-1.662.001l-1.94 4.54-4.907.446a.903.903 0 00-.513 1.581l3.709 3.253-1.094 4.817a.903.903 0 001.344.977l4.232-2.53 4.231 2.53a.904.904 0 001.344-.976l-1.093-4.818 3.709-3.252a.904.904 0 00.265-.96z"/></mask><path d="M64.956 6.156a.902.902 0 00-.778-.62L59.27 5.09 57.331.548a.904.904 0 00-1.662.001l-1.94 4.54-4.907.446a.903.903 0 00-.513 1.581l3.709 3.253-1.094 4.817a.903.903 0 001.344.977l4.232-2.53 4.231 2.53a.904.904 0 001.344-.976l-1.093-4.818 3.709-3.252a.904.904 0 00.265-.96v0z" fill="#FFC107" stroke="#FFC107" stroke-width="2" mask="url(#c)"/><mask id="d" fill="#fff"><path d="M40.956 6.156a.902.902 0 00-.778-.62L35.27 5.09 33.331.548a.904.904 0 00-1.662.001l-1.94 4.54-4.907.446a.903.903 0 00-.513 1.581l3.708 3.253-1.093 4.817a.903.903 0 001.344.977l4.232-2.53 4.231 2.53a.904.904 0 001.344-.976l-1.093-4.818 3.709-3.252a.904.904 0 00.265-.96z"/></mask><path d="M40.956 6.156a.902.902 0 00-.778-.62L35.27 5.09 33.331.548a.904.904 0 00-1.662.001l-1.94 4.54-4.907.446a.903.903 0 00-.513 1.581l3.708 3.253-1.093 4.817a.903.903 0 001.344.977l4.232-2.53 4.231 2.53a.904.904 0 001.344-.976l-1.093-4.818 3.709-3.252a.904.904 0 00.265-.96v0z" fill="#FFC107" stroke="#FFC107" stroke-width="2" mask="url(#d)"/><mask id="e" fill="#fff"><path d="M16.956 6.156a.902.902 0 00-.778-.62L11.27 5.09 9.331.548A.904.904 0 007.669.55l-1.94 4.54-4.907.446a.903.903 0 00-.513 1.581l3.709 3.253-1.094 4.817a.903.903 0 001.344.977l4.232-2.53 4.231 2.53a.904.904 0 001.345-.976l-1.094-4.818 3.709-3.252a.904.904 0 00.265-.96z"/></mask><path d="M16.956 6.156a.902.902 0 00-.778-.62L11.27 5.09 9.331.548A.904.904 0 007.669.55l-1.94 4.54-4.907.446a.903.903 0 00-.513 1.581l3.709 3.253-1.094 4.817a.903.903 0 001.344.977l4.232-2.53 4.231 2.53a.904.904 0 001.345-.976l-1.094-4.818 3.709-3.252a.904.904 0 00.265-.96v0z" fill="#FFC107" stroke="#FFC107" stroke-width="2" mask="url(#e)"/></svg>