<svg width="113" height="18" fill="none" xmlns="http://www.w3.org/2000/svg"><g clip-path="url(#clip0)"><path d="M16.956 6.521a.902.902 0 00-.778-.621l-4.907-.446L9.331.913a.904.904 0 00-1.662 0L5.73 5.455.822 5.9a.903.903 0 00-.513 1.58l3.709 3.254-1.094 4.817a.903.903 0 001.344.976l4.232-2.53 4.231 2.53a.904.904 0 001.345-.976l-1.094-4.817 3.709-3.252a.904.904 0 00.265-.96z" fill="#FFC107"/></g><path d="M112.956 7.156a.903.903 0 00-.778-.62l-4.907-.446-1.94-4.542a.904.904 0 00-1.662.001l-1.94 4.54-4.907.446a.903.903 0 00-.513 1.581l3.709 3.253-1.094 4.817a.903.903 0 001.344.977l4.232-2.53 4.231 2.53a.904.904 0 001.345-.976l-1.094-4.818 3.709-3.252a.905.905 0 00.265-.96zm-24 0a.902.902 0 00-.778-.62L83.27 6.09l-1.94-4.542a.904.904 0 00-1.662.001l-1.94 4.54-4.907.446a.903.903 0 00-.513 1.581l3.709 3.253-1.094 4.817a.903.903 0 001.344.977l4.232-2.53 4.231 2.53a.904.904 0 001.345-.976l-1.094-4.818 3.709-3.252a.904.904 0 00.265-.96zm-24 0a.902.902 0 00-.778-.62L59.27 6.09l-1.94-4.542a.904.904 0 00-1.662.001l-1.94 4.54-4.907.446a.903.903 0 00-.513 1.581l3.709 3.253-1.094 4.817a.903.903 0 001.344.977l4.232-2.53 4.231 2.53a.904.904 0 001.344-.976l-1.093-4.818 3.709-3.252a.904.904 0 00.265-.96zm-24 0a.902.902 0 00-.778-.62L35.27 6.09l-1.94-4.542a.904.904 0 00-1.662.001l-1.94 4.54-4.907.446a.903.903 0 00-.513 1.581l3.708 3.253-1.093 4.817a.903.903 0 001.344.977l4.232-2.53 4.231 2.53a.904.904 0 001.344-.976l-1.093-4.818 3.709-3.252a.904.904 0 00.265-.96z" fill="#FFC107"/><defs><clipPath id="clip0"><path fill="#fff" d="M0 0h17v17H0z"/></clipPath></defs></svg>